<svg width="85" height="32" viewBox="0 0 85 32" fill="none" xmlns="http://www.w3.org/2000/svg">
<path d="M41.3051 8.59921C41.3697 8.64929 41.431 8.70134 41.4918 8.75604C41.5097 8.77151 41.5276 8.78697 41.546 8.8029C41.8722 9.10355 42.1204 9.58655 42.1514 10.0309C42.1535 10.1064 42.1538 10.1816 42.1531 10.2571C42.1528 10.2838 42.1526 10.3105 42.1524 10.3381C42.1422 10.999 41.8405 11.4547 41.4298 11.9514C41.3653 12.0302 41.3024 12.1101 41.2397 12.1903C41.228 12.2052 41.2163 12.2201 41.2043 12.2355C41.1809 12.2654 41.1575 12.2954 41.1341 12.3254C41.0745 12.4016 41.0147 12.4776 40.9549 12.5537C40.9308 12.5842 40.9068 12.6148 40.8828 12.6454C40.4507 13.1954 40.4507 13.1954 40.4147 13.2412C40.3906 13.2718 40.3666 13.3024 40.3425 13.3331C40.2835 13.4082 40.2244 13.4833 40.1654 13.5583C40.0148 13.7496 39.8651 13.9415 39.7158 14.1337C39.6114 14.268 39.5066 14.4019 39.4013 14.5356C39.3032 14.6603 39.2058 14.7855 39.1084 14.9108C38.9635 15.0974 38.8179 15.2835 38.6717 15.4691C38.6121 15.5449 38.5525 15.6207 38.4929 15.6966C38.4689 15.7271 38.4449 15.7577 38.4209 15.7882C38.409 15.8034 38.3971 15.8185 38.3849 15.8341C38.2529 16.0021 38.1208 16.1702 37.9888 16.3382C37.9769 16.3534 37.965 16.3685 37.9528 16.3841C37.9287 16.4147 37.9047 16.4453 37.8806 16.4758C37.8211 16.5515 37.7617 16.6272 37.7025 16.7031C37.5606 16.8845 37.4167 17.0641 37.271 17.2425C37.1773 17.3576 37.0849 17.4736 36.9935 17.5905C36.8921 17.7203 36.789 17.8486 36.6843 17.9758C36.6059 18.0713 36.528 18.1673 36.4501 18.2632C36.3334 18.407 36.2165 18.5505 36.0992 18.6937C36.0618 18.7392 36.0246 18.7849 35.9874 18.8305C35.869 18.976 35.7488 19.1199 35.6273 19.2628C35.5519 19.3517 35.4776 19.4414 35.4041 19.5319C35.2758 19.6894 35.1434 19.8432 35.0108 19.9971C34.9448 20.0738 34.879 20.1507 34.8132 20.2275C34.7938 20.2501 34.7938 20.2501 34.7741 20.2731C34.7075 20.3507 34.641 20.4284 34.5747 20.5062C34.438 20.6664 34.3002 20.8252 34.1587 20.9811C34.11 21.035 34.062 21.0894 34.0143 21.1442C33.9067 21.2678 33.7968 21.3892 33.687 21.5109C33.6477 21.5545 33.6084 21.5982 33.5691 21.6418C33.5398 21.6744 33.5398 21.6744 33.5099 21.7076C33.4716 21.7502 33.4333 21.7928 33.3951 21.8355C33.2323 22.0171 33.0671 22.1964 32.9012 22.3752C32.886 22.3916 32.8708 22.408 32.8552 22.4249C32.5243 22.7822 32.5243 22.7822 32.3554 22.9455C32.3093 22.993 32.2668 23.0412 32.224 23.0916C32.0866 23.2489 31.9376 23.3949 31.7899 23.5424C31.7583 23.574 31.7268 23.6055 31.6953 23.6371C31.6295 23.7029 31.5636 23.7687 31.4978 23.8345C31.4138 23.9182 31.33 24.0022 31.2462 24.0861C31.1812 24.1512 31.1161 24.2162 31.051 24.2813C31.0201 24.3122 30.9892 24.3431 30.9584 24.374C30.8118 24.5208 30.6656 24.6669 30.5072 24.8012C30.4416 24.8577 30.382 24.9192 30.3215 24.9811C30.2275 25.0764 30.1315 25.1673 30.0297 25.2542C29.9418 25.3315 29.8568 25.4118 29.7715 25.4919C29.6541 25.6019 29.5366 25.711 29.4146 25.8159C29.3554 25.8673 29.2975 25.9203 29.2395 25.9731C29.1488 26.0551 29.0563 26.1337 28.9612 26.2105C28.8616 26.291 28.7657 26.3742 28.6714 26.4609C28.5558 26.5672 28.4367 26.6676 28.3145 26.7663C28.2333 26.8325 28.1536 26.9003 28.074 26.9684C27.9278 27.0928 27.778 27.212 27.6266 27.3299C27.5283 27.4065 27.4312 27.4845 27.3341 27.5626C27.1726 27.6921 27.0094 27.8192 26.8448 27.9448C26.7951 27.9828 26.7456 28.0209 26.6961 28.0591C26.4189 28.2723 26.1385 28.4809 25.856 28.6871C25.8358 28.7019 25.8156 28.7166 25.7948 28.7318C25.163 29.1925 24.5153 29.6292 23.8393 30.0228C23.8216 30.0331 23.8039 30.0435 23.7857 30.0541C23.4689 30.2377 23.1442 30.4069 22.8178 30.5728C22.7844 30.5899 22.7844 30.5899 22.7503 30.6073C21.4336 31.2734 19.9419 31.6993 18.4663 31.7735C18.3796 31.7783 18.2931 31.7849 18.2065 31.7913C16.6543 31.8949 15.0833 31.6505 13.6118 31.1589C13.5915 31.1521 13.5712 31.1453 13.5503 31.1383C12.9975 30.953 12.4724 30.7196 11.9491 30.4637C11.2886 30.1409 10.6181 29.8421 9.93205 29.5776C9.91517 29.5711 9.8983 29.5646 9.88091 29.5579C8.44344 29.0056 6.78229 28.6731 5.28648 29.188C4.82906 29.3445 4.26676 29.4073 3.80344 29.2371C3.77569 29.2279 3.74794 29.2187 3.71934 29.2092C3.39913 29.0961 3.15682 28.9201 2.91296 28.6871C2.89685 28.673 2.88075 28.6588 2.86416 28.6443C2.47889 28.2926 2.2473 27.7139 2.22382 27.2025C2.20504 26.5443 2.4079 25.9923 2.85894 25.5066C3.14628 25.2314 3.50512 25.0259 3.83517 24.8069C4.18174 24.5769 4.5263 24.3439 4.871 24.111C5.26736 23.8434 5.26736 23.8434 5.46501 23.7119C5.7212 23.5415 5.97599 23.3691 6.23098 23.1969C6.77853 22.8272 6.77853 22.8272 7.01826 22.6678C7.25818 22.5075 7.49699 22.3456 7.73612 22.1841C7.9812 22.0187 8.22631 21.8533 8.47253 21.6895C8.71102 21.5308 8.94818 21.37 9.18561 21.2097C9.73316 20.84 9.73316 20.84 9.99134 20.6683C10.2299 20.5094 10.4672 20.3486 10.7047 20.1883C11.0064 19.9845 11.3082 19.781 11.6113 19.5794C11.7036 19.518 11.7958 19.4565 11.8881 19.395C11.9262 19.3696 11.9643 19.3442 12.0024 19.3187C12.0212 19.3062 12.0401 19.2936 12.0595 19.2807C12.2147 19.1772 12.3698 19.0738 12.5249 18.9704C12.5105 18.966 12.496 18.9615 12.4811 18.957C12.3076 18.9038 12.1341 18.8504 11.9606 18.7968C11.8798 18.7719 11.7989 18.747 11.718 18.7221C11.1301 18.5413 10.5441 18.3556 9.95988 18.1634C9.34594 17.9615 8.7307 17.7678 8.10666 17.5991C8.05929 17.5859 8.01207 17.5722 7.96491 17.5583C7.74705 17.4943 7.52898 17.4421 7.30644 17.3973C7.27344 17.3906 7.24045 17.3839 7.20645 17.3769C6.72148 17.2791 6.2515 17.2095 5.75628 17.2091C5.73651 17.2091 5.71674 17.209 5.69638 17.209C5.39137 17.2095 5.09618 17.2207 4.79868 17.2942C4.78127 17.2984 4.76386 17.3026 4.74592 17.307C4.2637 17.429 3.83871 17.6659 3.44813 17.969C2.94799 18.3534 2.38808 18.5192 1.75549 18.4393C1.3793 18.3769 1.02525 18.1986 0.739134 17.949C0.71378 17.9288 0.688425 17.9086 0.662302 17.8878C0.301904 17.5871 0.0562586 17.0731 0.00579658 16.6132C-0.031769 15.9783 0.109754 15.4276 0.532883 14.937C1.40023 14.013 2.69481 13.441 3.9082 13.1561C3.92616 13.1518 3.94412 13.1475 3.96263 13.1431C4.48358 13.0213 5.01337 12.9862 5.54678 12.9901C5.63674 12.9907 5.72668 12.9907 5.81664 12.9905C6.40825 12.9911 6.98417 13.0428 7.56671 13.1446C7.60603 13.1514 7.60603 13.1514 7.64614 13.1583C8.34095 13.2785 9.02401 13.4394 9.69554 13.6551C9.77097 13.6787 9.84669 13.701 9.92257 13.7229C10.1743 13.796 10.4237 13.8752 10.6729 13.9565C10.7147 13.9701 10.7565 13.9837 10.7983 13.9973C10.9071 14.0327 11.0159 14.0681 11.1247 14.1036C11.2988 14.1603 11.4729 14.2169 11.6471 14.2736C11.707 14.2931 11.7668 14.3126 11.8267 14.3321C13.9157 15.039 13.9157 15.039 16.0868 15.3299C16.1119 15.3304 16.1369 15.331 16.1626 15.3315C16.6559 15.3406 17.1153 15.3109 17.5977 15.2088C18.224 15.0783 18.8496 15.1613 19.4049 15.4919C19.9554 15.8628 20.335 16.4176 20.4676 17.0686C20.5744 17.6764 20.4066 18.2847 20.0685 18.7936C19.7713 19.1968 19.3681 19.4595 18.9554 19.7316C18.8344 19.8114 18.7138 19.8916 18.5931 19.9717C18.5681 19.9882 18.5431 20.0048 18.5173 20.0219C18.2371 20.2079 17.9583 20.3961 17.6796 20.5844C17.5886 20.6458 17.4977 20.7073 17.4067 20.7687C17.3853 20.7832 17.3639 20.7977 17.3418 20.8126C17.2171 20.8968 17.0922 20.9805 16.967 21.0638C16.712 21.2334 16.4585 21.405 16.2047 21.5764C15.6572 21.9461 15.6572 21.9461 15.399 22.1178C15.1604 22.2766 14.9232 22.4374 14.6856 22.5978C14.1381 22.9675 14.1381 22.9675 13.8799 23.1392C13.6414 23.2981 13.4041 23.4588 13.1666 23.6192C12.6191 23.989 12.6191 23.989 12.4074 24.1297C12.1516 24.2999 11.8972 24.472 11.6426 24.6439C10.7929 25.2176 10.7929 25.2176 10.6392 25.3085C10.6551 25.3113 10.671 25.314 10.6873 25.3169C10.8516 25.3473 11.0048 25.3914 11.1614 25.4493C11.1859 25.4583 11.2105 25.4673 11.2358 25.4765C11.466 25.5626 11.689 25.6634 11.9126 25.7652C12.1176 25.8576 12.3246 25.9385 12.5364 26.014C12.8598 26.1302 13.1683 26.2701 13.4785 26.4177C14.4028 26.8572 15.3026 27.2289 16.3226 27.3776C16.3423 27.3806 16.3621 27.3835 16.3825 27.3866C16.7911 27.4476 17.1968 27.4623 17.6092 27.4627C17.6332 27.4628 17.6573 27.4628 17.6821 27.4628C18.098 27.4629 18.5035 27.4381 18.9154 27.3776C18.9442 27.3734 18.973 27.3693 19.0027 27.365C19.1659 27.3407 19.3275 27.313 19.4884 27.2761C19.5084 27.2715 19.5285 27.2669 19.5492 27.2622C19.6087 27.2485 19.668 27.2345 19.7273 27.2204C19.7582 27.2133 19.7891 27.2061 19.8209 27.1987C20.3202 27.0741 20.8091 26.8935 21.2726 26.6704C21.29 26.6621 21.3075 26.6538 21.3255 26.6452C21.9571 26.342 22.5598 25.9826 23.1134 25.5527C23.18 25.5013 23.2478 25.4517 23.3155 25.4018C23.4956 25.2668 23.6695 25.1241 23.8436 24.9813C23.8854 24.947 23.9275 24.9128 23.9695 24.8787C24.1488 24.7332 24.3241 24.5834 24.499 24.4326C24.5463 24.392 24.5937 24.3515 24.6412 24.3111C24.7834 24.19 24.9245 24.0682 25.0621 23.9417C25.153 23.8582 25.2457 23.7785 25.342 23.7011C25.4676 23.5998 25.5854 23.4922 25.703 23.3821C25.8134 23.2793 25.9283 23.184 26.0459 23.0896C26.1248 23.0242 26.2001 22.9556 26.275 22.8859C26.3721 22.7955 26.471 22.7087 26.5746 22.6256C26.7164 22.5114 26.8491 22.3889 26.9822 22.2648C27.0596 22.1925 27.1389 22.1225 27.219 22.0532C27.2803 21.9997 27.3408 21.9452 27.4012 21.8906C27.4793 21.8202 27.5576 21.7502 27.6369 21.6811C27.8399 21.5041 28.0386 21.3222 28.2369 21.1399C28.2916 21.0897 28.3464 21.0397 28.4013 20.9897C28.5279 20.8744 28.653 20.7583 28.7729 20.6359C28.8181 20.5917 28.8654 20.5514 28.9137 20.5107C29.008 20.4292 29.094 20.3416 29.1789 20.2505C29.1914 20.2373 29.2039 20.2241 29.2167 20.2105C29.2882 20.1326 29.3292 20.0642 29.3655 19.9656C29.0653 19.6648 28.765 19.364 28.4646 19.0634C28.3251 18.9238 28.1856 18.7841 28.0462 18.6444C27.9247 18.5226 27.803 18.4008 27.6814 18.279C27.617 18.2146 27.5527 18.1502 27.4884 18.0857C27.4164 18.0136 27.3444 17.9415 27.2723 17.8695C27.2513 17.8483 27.2302 17.8272 27.2085 17.8054C27.1187 17.7157 27.0284 17.6281 26.9321 17.5454C26.7981 17.4298 26.6744 17.304 26.5497 17.1786C26.5227 17.1515 26.4956 17.1244 26.4686 17.0973C26.4107 17.0394 26.3529 16.9814 26.2951 16.9234C26.2036 16.8315 26.1119 16.7397 26.0203 16.648C25.8092 16.4366 25.5983 16.2251 25.3874 16.0136C25.1939 15.8196 25.0005 15.6257 24.8069 15.4318C24.7159 15.3407 24.6251 15.2496 24.5342 15.1584C24.4776 15.1015 24.4208 15.0447 24.3641 14.9879C24.3379 14.9617 24.3118 14.9355 24.2858 14.9093C24.1577 14.7806 24.0286 14.6556 23.8908 14.5373C23.7909 14.4491 23.6973 14.3544 23.6028 14.2604C23.5802 14.238 23.5576 14.2156 23.5342 14.1925C23.4599 14.1188 23.3857 14.045 23.3115 13.9712C23.2857 13.9455 23.2599 13.9199 23.2341 13.8942C23.1268 13.7875 23.0195 13.6806 22.9123 13.5737C22.7598 13.4216 22.607 13.2698 22.454 13.1182C22.3457 13.011 22.2377 12.9035 22.1299 12.7958C22.0658 12.7318 22.0016 12.6679 21.9372 12.6043C21.3993 12.0727 21.0353 11.5601 21.0254 10.7744C21.0298 10.2124 21.2596 9.69532 21.6512 9.29305C22.0532 8.90056 22.5913 8.69686 23.1501 8.6953C23.4806 8.70044 23.807 8.78972 24.1012 8.93938C24.1278 8.95275 24.1543 8.96612 24.1817 8.97989C24.4915 9.15733 24.7287 9.42538 24.9732 9.68132C25.0264 9.73382 25.0793 9.78199 25.136 9.83028C25.2731 9.94981 25.4007 10.0785 25.5289 10.2074C25.5559 10.2345 25.583 10.2615 25.61 10.2886C25.6679 10.3466 25.7257 10.4045 25.7835 10.4625C25.875 10.5544 25.9666 10.6462 26.0583 10.738C26.2693 10.9494 26.4803 11.1609 26.6912 11.3724C26.8846 11.5664 27.0781 11.7603 27.2717 11.9541C27.3626 12.0452 27.4535 12.1364 27.5443 12.2275C27.601 12.2844 27.6578 12.3412 27.7145 12.3981C27.7406 12.4242 27.7667 12.4504 27.7928 12.4766C27.9041 12.5885 28.0148 12.6997 28.1345 12.8025C28.268 12.9171 28.3907 13.0423 28.5146 13.1669C28.5416 13.194 28.5687 13.2211 28.5957 13.2482C28.6536 13.3061 28.7114 13.3641 28.7692 13.4221C28.8607 13.514 28.9524 13.6058 29.044 13.6975C29.2551 13.9089 29.466 14.1204 29.6769 14.3319C29.8704 14.5259 30.0638 14.7198 30.2574 14.9137C30.3484 15.0048 30.4392 15.0959 30.5301 15.1871C30.5868 15.244 30.6435 15.3008 30.7003 15.3576C30.7264 15.3838 30.7525 15.41 30.7785 15.4362C30.9091 15.5674 31.0407 15.6952 31.1812 15.8158C31.2348 15.8621 31.2854 15.9109 31.3354 15.9611C31.3542 15.9799 31.3731 15.9988 31.3925 16.0182C31.4121 16.0379 31.4316 16.0576 31.4517 16.0779C31.4724 16.0985 31.493 16.1192 31.5143 16.1405C31.5794 16.2058 31.6445 16.2712 31.7096 16.3366C31.754 16.3812 31.7985 16.4258 31.843 16.4704C31.9513 16.579 32.0597 16.6878 32.1679 16.7966C32.3492 16.6159 32.5146 16.4245 32.6758 16.2258C32.727 16.1627 32.7786 16.0999 32.8304 16.0373C32.9878 15.8473 33.1433 15.6563 33.2948 15.4616C33.3751 15.3588 33.4581 15.2588 33.5429 15.1597C33.6798 14.9996 33.81 14.835 33.9393 14.6688C33.998 14.5933 34.0568 14.5179 34.1158 14.4427C34.1276 14.4277 34.1393 14.4127 34.1514 14.3973C34.2446 14.2788 34.3396 14.1617 34.435 14.0449C34.5599 13.892 34.6817 13.7371 34.8015 13.5801C34.8679 13.4932 34.9354 13.4073 35.003 13.3214C35.1149 13.1794 35.2261 13.0369 35.337 12.8942C35.4571 12.7395 35.5777 12.5852 35.6988 12.4313C35.7969 12.3066 35.8944 12.1814 35.9917 12.0561C36.1119 11.9014 36.2324 11.7471 36.3536 11.5932C36.4517 11.4685 36.5491 11.3433 36.6465 11.218C36.7914 11.0314 36.937 10.8454 37.0832 10.6597C37.1308 10.5993 37.1783 10.5388 37.2258 10.4783C37.2499 10.4476 37.274 10.4169 37.2981 10.3863C37.3576 10.3106 37.417 10.2349 37.4762 10.1591C37.6181 9.97758 37.7621 9.79796 37.9078 9.6195C37.9884 9.52067 38.068 9.42123 38.1463 9.32065C38.1932 9.26047 38.2404 9.20056 38.2878 9.14073C38.3111 9.11115 38.3344 9.08151 38.3576 9.0518C39.0816 8.1305 40.3321 7.91748 41.3051 8.59921Z" fill="#E63F3A"/>
<path d="M51.9592 0.000237593C51.9901 0.000160311 52.021 8.3029e-05 52.0529 3.40532e-06C52.4582 -0.000225902 52.8592 0.0110529 53.2622 0.0558927C53.2819 0.0580605 53.3015 0.0602284 53.3218 0.0624619C53.5806 0.0918773 53.8339 0.138597 54.0889 0.191757C54.1356 0.200596 54.1823 0.209278 54.2291 0.217743C55.0729 0.371023 55.8976 0.629138 56.6817 0.977476C56.7084 0.989212 56.735 1.00095 56.7624 1.01304C57.9533 1.54094 59.021 2.24764 59.9818 3.12511C60.0068 3.14773 60.0319 3.17035 60.0577 3.19365C60.2902 3.40423 60.5185 3.6193 60.7223 3.85834C60.7732 3.91744 60.826 3.97457 60.8788 4.03196C61.0125 4.18024 61.1347 4.33654 61.2565 4.49462C61.2876 4.53467 61.3194 4.57421 61.3512 4.61368C62.7744 6.39872 63.6826 8.75996 63.9546 11.1715C63.9626 11.2434 63.9721 11.315 63.982 11.3867C64.0317 11.754 64.0593 12.1218 64.0839 12.4915C64.0855 12.516 64.0871 12.5406 64.0888 12.5658C64.1001 12.7363 64.1101 12.9069 64.1199 13.0775C64.1217 13.1093 64.1217 13.1093 64.1237 13.1418C64.1514 13.627 64.1495 14.112 64.1487 14.5978C64.1486 14.7151 64.1485 14.8324 64.1485 14.9497C64.1484 15.1708 64.1482 15.3919 64.1479 15.613C64.1477 15.8652 64.1475 16.1173 64.1474 16.3695C64.1471 16.8873 64.1467 17.405 64.1461 17.9228C64.2047 17.8769 64.2633 17.8309 64.3219 17.7849C64.3384 17.772 64.3548 17.7591 64.3718 17.7458C64.4945 17.6494 64.6155 17.5513 64.7354 17.4514C64.8844 17.3279 65.0348 17.2066 65.1874 17.0877C65.3042 16.9965 65.4194 16.9034 65.5342 16.8097C65.6635 16.7041 65.7937 16.5997 65.9254 16.4971C66.0632 16.3896 66.1984 16.2795 66.333 16.168C66.4821 16.0446 66.6325 15.9233 66.7852 15.8042C66.9728 15.6576 67.1569 15.5067 67.3413 15.3561C67.5557 15.1812 67.7704 15.0069 67.9885 14.8366C68.1238 14.7307 68.257 14.6223 68.39 14.5137C68.5017 14.4227 68.6142 14.3332 68.7278 14.2447C68.8656 14.1372 69.0008 14.0271 69.1354 13.9156C69.2844 13.7923 69.4347 13.671 69.5872 13.5521C69.7062 13.4592 69.8237 13.3644 69.9407 13.2691C69.9586 13.2546 69.9764 13.24 69.9948 13.2251C70.0688 13.1649 70.1428 13.1045 70.2165 13.0439C70.7946 12.5725 71.3269 12.3395 72.0818 12.3966C72.6547 12.4785 73.164 12.7695 73.5118 13.2314C73.7231 13.529 73.8703 13.8904 73.889 14.2561C73.8904 14.283 73.8917 14.3099 73.8932 14.3377C73.909 14.9435 73.7093 15.5108 73.2901 15.9535C73.2716 15.9724 73.2532 15.9914 73.2342 16.0109C73.213 16.034 73.213 16.034 73.1915 16.0577C73.0689 16.1879 72.9268 16.2941 72.7858 16.4031C72.6807 16.4846 72.5776 16.5684 72.4747 16.6526C72.3453 16.7582 72.2152 16.8626 72.0835 16.9652C71.9457 17.0727 71.8104 17.1828 71.6759 17.2942C71.5268 17.4177 71.3764 17.539 71.2238 17.6579C71.107 17.7491 70.9918 17.8422 70.8771 17.9359C70.7273 18.0582 70.5763 18.1788 70.4237 18.2976C70.2492 18.4189 70.2492 18.4189 70.1175 18.5776C70.1357 18.5843 70.1538 18.5911 70.1725 18.598C70.5658 18.7632 70.918 19.0402 71.2437 19.3109C71.2702 19.3325 71.2966 19.3541 71.3238 19.3763C71.6966 19.6848 72.0482 20.0274 72.3437 20.4109C72.3669 20.4391 72.3902 20.4673 72.4136 20.4953C73.3451 21.6207 73.9305 22.962 74.324 24.358C74.5702 25.2267 74.8751 26.2133 75.5457 26.8583C75.5914 26.9062 75.5914 26.9062 75.5914 26.9586C75.614 26.9686 75.614 26.9686 75.6371 26.9787C75.7027 27.0146 75.7484 27.0561 75.8025 27.1075C76.1378 27.4101 76.5422 27.5962 76.9795 27.6919C76.9988 27.6965 77.0182 27.7012 77.0381 27.7059C77.4791 27.805 77.9639 27.7741 78.3938 27.6395C78.4115 27.6341 78.4292 27.6286 78.4475 27.623C79.1249 27.4068 79.7233 26.9481 80.1485 26.3824C80.1777 26.3441 80.1777 26.3441 80.2074 26.3049C80.3324 26.1366 80.444 25.9621 80.5529 25.783C80.8771 25.2513 81.2321 24.8569 81.8247 24.6276C81.8508 24.6168 81.8768 24.606 81.9036 24.5949C82.1134 24.5206 82.3141 24.5129 82.5352 24.5114C82.5636 24.5111 82.592 24.5109 82.6212 24.5106C83.1844 24.5167 83.6765 24.7717 84.068 25.1665C84.4931 25.616 84.618 26.1441 84.6097 26.742C84.5719 27.7612 83.684 28.8046 83.0295 29.5253C83.0147 29.5417 82.9998 29.5582 82.9845 29.5752C82.1942 30.4486 81.2208 31.0927 80.1224 31.5158C80.0999 31.5245 80.0774 31.5332 80.0543 31.5422C79.5462 31.7374 79.0114 31.8626 78.4723 31.9348C78.4433 31.9389 78.4433 31.9389 78.4137 31.943C77.8741 32.0157 77.3137 32.0223 76.7747 31.9429C76.7134 31.9342 76.6521 31.9272 76.5907 31.9203C75.4264 31.7822 74.2956 31.2781 73.3652 30.5729C73.3501 30.5616 73.3351 30.5503 73.3196 30.5387C72.8082 30.1527 72.3122 29.6953 71.9247 29.1848C71.9043 29.1593 71.8838 29.1337 71.8628 29.1074C71.5148 28.6706 71.2106 28.1836 70.9998 27.6657C70.9919 27.6465 70.9841 27.6273 70.9759 27.6075C70.9062 27.4288 70.8577 27.2446 70.8073 27.0597C70.5656 26.1749 70.2796 25.3099 69.908 24.4705C69.8985 24.4488 69.889 24.4272 69.8792 24.4049C69.4512 23.4392 68.7817 22.526 67.7669 22.1313C67.2251 21.9338 66.5955 21.8911 66.058 22.1133C66.0327 22.1232 66.0327 22.1232 66.0068 22.1333C65.4749 22.3414 65.0076 22.6713 64.552 23.0103C64.5354 23.0227 64.5188 23.035 64.5017 23.0477C64.4702 23.0714 64.439 23.0955 64.4081 23.12C64.3731 23.1473 64.3374 23.1737 64.3011 23.1991C64.1901 23.2832 64.1901 23.2832 64.1269 23.4039C64.1198 23.4741 64.1193 23.5416 64.1211 23.6121C64.1209 23.6516 64.1209 23.6516 64.1206 23.6918C64.1203 23.7785 64.1215 23.8651 64.1226 23.9518C64.1226 24.0124 64.1225 24.0729 64.1223 24.1335C64.122 24.293 64.1229 24.4524 64.1241 24.6118C64.1259 24.8664 64.1259 25.121 64.1258 25.3756C64.1259 25.4641 64.1266 25.5526 64.1274 25.6411C64.1288 25.9167 64.1265 26.1701 64.0413 26.4348C64.0314 26.4667 64.0216 26.4986 64.0114 26.5315C63.78 27.1304 63.3873 27.5366 62.8051 27.8021C62.3675 27.9951 61.7771 28.0031 61.3308 27.8372C61.0725 27.7233 60.8476 27.5919 60.6365 27.4038C60.6166 27.3864 60.5967 27.369 60.5763 27.351C60.1219 26.9273 59.9265 26.3184 59.9002 25.7102C59.8952 25.516 59.8959 25.3217 59.8962 25.1275C59.8962 25.0626 59.8961 24.9977 59.896 24.9328C59.8959 24.7756 59.896 24.6185 59.8963 24.4614C59.8966 24.3326 59.8967 24.2039 59.8968 24.0751C59.8976 22.966 59.9087 21.8571 59.9277 20.7481C59.928 20.7308 59.9283 20.7135 59.9286 20.6957C59.9342 20.3694 59.9399 20.0431 59.9457 19.7169C59.9749 18.074 59.9852 16.4311 59.9879 14.788C59.9882 14.6278 59.9886 14.4675 59.9892 14.3073C59.9899 14.1103 59.9902 13.9133 59.9902 13.7162C59.9902 13.6145 59.9904 13.5127 59.9909 13.411C59.9929 12.9458 59.9747 12.4897 59.9132 12.0279C59.8998 11.9251 59.8882 11.8222 59.8768 11.7192C59.8377 11.3808 59.764 11.0511 59.6858 10.7198C59.6702 10.6534 59.6551 10.5868 59.6405 10.5202C59.3406 9.16866 58.7628 7.85051 57.8603 6.7918C57.8365 6.7631 57.8126 6.73438 57.7888 6.70565C57.5168 6.38002 57.2248 6.08559 56.8913 5.82274C56.8697 5.80438 56.8482 5.78601 56.826 5.76709C56.6083 5.58181 56.3726 5.42611 56.1317 5.27274C56.1141 5.2615 56.0965 5.25026 56.0784 5.23867C55.4269 4.82774 54.7035 4.52149 53.9579 4.32988C53.9119 4.31717 53.9119 4.31717 53.8649 4.3042C52.848 4.0331 51.7751 3.99861 50.7365 4.14654C50.7142 4.14962 50.692 4.1527 50.6691 4.15587C50.5336 4.17504 50.3993 4.19837 50.265 4.22511C50.2455 4.22894 50.2259 4.23276 50.2058 4.2367C48.8556 4.50859 47.5479 5.14838 46.4936 6.03227C46.4657 6.05513 46.4379 6.07798 46.41 6.10081C46.0763 6.37656 45.7438 6.67164 45.4607 6.99968C45.1299 7.37939 44.7424 7.65735 44.2412 7.76085C43.8378 7.78803 43.4355 7.80095 43.0626 7.6299C43.0327 7.61629 43.0028 7.60268 42.9721 7.58867C42.4483 7.32708 42.1038 6.89427 41.9093 6.34993C41.7573 5.85709 41.8013 5.33702 42.0199 4.87333C42.2756 4.39645 42.6829 4.02672 43.061 3.64728C43.0738 3.63437 43.0866 3.62146 43.0999 3.60816C43.2486 3.45883 43.3994 3.31383 43.5602 3.17749C43.5867 3.15452 43.6131 3.13153 43.6395 3.10853C43.8681 2.91275 44.1051 2.72934 44.3459 2.54891C44.363 2.53607 44.3801 2.52323 44.3978 2.51C45.0555 2.01735 45.7586 1.60644 46.4936 1.23938C46.5159 1.22812 46.5382 1.21685 46.5612 1.20525C47.267 0.850686 48.0211 0.583979 48.7879 0.396908C48.8507 0.381521 48.9134 0.365859 48.9761 0.35C49.43 0.235254 49.8819 0.145664 50.3469 0.088631C50.3685 0.0859678 50.39 0.0833046 50.4123 0.0805607C50.9279 0.0180316 51.44 0.00138504 51.9592 0.000237593Z" fill="#E63F3A"/>
<path d="M50.1868 13.6012C50.2222 13.6085 50.2222 13.6085 50.2583 13.616C51.6049 13.8985 53.4204 14.502 54.4034 15.4869C54.4196 15.5013 54.4358 15.5156 54.4524 15.5303C54.8119 15.8569 55.011 16.39 55.0421 16.8677C55.0565 17.258 54.9817 17.6291 54.7963 17.9751C54.7834 18.0002 54.7706 18.0254 54.7573 18.0514C54.4782 18.567 54.0109 18.9113 53.4573 19.0865C52.9236 19.2411 52.3333 19.1643 51.8446 18.9069C51.7148 18.8353 51.5865 18.7612 51.4582 18.6869C51.2909 18.5902 51.1202 18.5028 50.946 18.4193C50.8906 18.3925 50.8356 18.365 50.7806 18.3373C50.4441 18.1704 50.0968 18.0437 49.7415 17.9227C49.7174 17.9142 49.6932 17.9058 49.6684 17.8971C49.0668 17.687 48.4408 17.5551 47.8034 17.5298C47.7622 17.5281 47.7622 17.5281 47.7202 17.5263C47.0034 17.5009 46.3086 17.5899 45.6558 17.8932C45.6332 17.9037 45.6107 17.9141 45.5874 17.9248C45.4279 18.0024 45.2952 18.0988 45.1581 18.2108C45.1311 18.2302 45.1041 18.2497 45.0763 18.2697C44.9108 18.428 44.7842 18.6353 44.7556 18.8648C44.7499 19.1297 44.8089 19.3691 44.9748 19.5809C45.8241 20.4447 47.8074 20.5 48.9505 20.6608C49.1623 20.6909 49.3733 20.7261 49.5844 20.7605C49.6581 20.7725 49.7317 20.7843 49.8054 20.796C50.3635 20.8847 50.9191 20.9831 51.4734 21.0934C51.5001 21.0987 51.5269 21.1039 51.5544 21.1094C52.076 21.2127 52.5948 21.3308 53.1021 21.4912C53.1336 21.5011 53.1651 21.511 53.1976 21.5212C54.3825 21.8993 55.4316 22.4108 56.3415 23.2656C56.3582 23.2808 56.3748 23.296 56.392 23.3117C56.5512 23.4626 56.6824 23.64 56.813 23.8156C56.8242 23.8306 56.8354 23.8455 56.8469 23.861C57.1643 24.293 57.3842 24.7913 57.5201 25.3084C57.5284 25.3397 57.5366 25.371 57.5451 25.4033C57.7806 26.4017 57.6832 27.5077 57.2844 28.4513C57.2746 28.4747 57.2647 28.4982 57.2545 28.5223C57.0474 29.0043 56.7691 29.4232 56.4201 29.8132C56.3993 29.8372 56.3785 29.8612 56.3571 29.8859C56.2378 30.0219 56.1146 30.1438 55.9749 30.2585C55.9621 30.2693 55.9494 30.2802 55.9363 30.2914C55.4113 30.7389 54.8104 31.0513 54.1742 31.3085C54.1373 31.3234 54.1006 31.3385 54.0639 31.3538C53.5562 31.5653 53.0056 31.6825 52.4653 31.7775C52.4146 31.7866 52.4146 31.7866 52.3628 31.7959C52.0936 31.8431 51.8244 31.8785 51.5525 31.9053C51.4891 31.9117 51.4258 31.9184 51.3624 31.9252C50.6895 31.9944 50.0117 31.992 49.3359 31.9919C49.2514 31.9919 49.1669 31.9921 49.0824 31.9924C48.5922 31.9945 48.108 31.9885 47.6201 31.9347C47.5857 31.9311 47.5514 31.9275 47.5161 31.9238C47.4355 31.9151 47.3551 31.9055 47.2747 31.8954C47.2491 31.8923 47.2236 31.8892 47.1973 31.8861C45.0623 31.6243 42.9657 30.895 41.1248 29.787C41.1005 29.7725 41.0762 29.758 41.0512 29.743C40.7231 29.5463 40.4093 29.3356 40.1034 29.1061C40.079 29.088 40.079 29.088 40.0542 29.0695C39.8119 28.8889 39.5783 28.6973 39.37 28.4775C39.3584 28.4657 39.3467 28.4539 39.3347 28.4418C38.9065 27.9816 38.8229 27.4032 38.8417 26.8003C38.8726 26.2648 39.1524 25.7688 39.537 25.405C39.6732 25.2866 39.8149 25.187 39.9724 25.0989C40.004 25.0812 40.004 25.0812 40.0361 25.0632C40.5668 24.7958 41.1277 24.7752 41.6894 24.9435C42.054 25.0645 42.328 25.265 42.6253 25.5C44.0529 26.6248 45.7587 27.3801 47.5546 27.6607C47.587 27.6658 47.6194 27.6709 47.6528 27.6761C47.7552 27.6914 47.8578 27.7051 47.9605 27.718C47.9795 27.7204 47.9984 27.7229 48.0179 27.7254C48.4495 27.7793 48.8818 27.7798 49.3161 27.7787C49.3755 27.7785 49.435 27.7785 49.4945 27.7784C51.3565 27.8313 51.3565 27.8313 52.9817 27.1246C53.157 26.936 53.1874 26.7543 53.1819 26.4998C53.1641 26.3266 53.1123 26.1904 52.9892 26.068C52.9892 26.0507 52.9892 26.0334 52.9892 26.0156C52.974 26.0085 52.9589 26.0014 52.9433 25.994C52.8844 25.9632 52.8337 25.9279 52.7799 25.8889C52.6387 25.7939 52.4898 25.7397 52.3295 25.6849C52.3004 25.6747 52.2713 25.6646 52.2413 25.6541C52.0382 25.5837 51.8351 25.5203 51.6272 25.4656C51.5908 25.4557 51.5543 25.4458 51.5178 25.4359C51.2346 25.3595 50.9509 25.2932 50.6631 25.2364C50.6414 25.2321 50.6198 25.2278 50.5974 25.2233C49.6831 25.042 48.7604 24.9032 47.8399 24.7576C47.0472 24.6321 46.2576 24.5023 45.4784 24.3078C45.3916 24.2864 45.3045 24.2659 45.2174 24.2455C43.6515 23.8737 42.1304 23.2208 41.2387 21.8144C40.7986 21.0995 40.5363 20.3568 40.5388 19.5105C40.5388 19.4921 40.5388 19.4737 40.5388 19.4547C40.5442 17.9095 41.0729 16.4254 42.1462 15.3036C42.1598 15.2892 42.1734 15.2747 42.1874 15.2598C43.9337 13.4103 46.8416 13.0708 50.1868 13.6012Z" fill="#E63F3A"/>
</svg>
